<?xml version="1.0" encoding="UTF-8"?>
<svg id="Capa_1" data-name="Capa 1" xmlns="http://www.w3.org/2000/svg" viewBox="0 0 382.2 242.79">
  <defs>
    <style>
      .cls-1 {
        fill: #5445a8;
      }

      .cls-2 {
        fill: #5345a8;
      }

      .cls-3 {
        fill: #5445a9;
      }
    </style>
  </defs>
  <path class="cls-1" d="M276.03,143.04l-.02,48.95c.64,5.96.94,13.92,7.26,16.74,6.07,2.72,15.43,1.84,18.7-4.69.81-1.61,2.18-6.99,2.18-8.69v-52.31h11.25l.02,52.7c1.03,37.01-61.63,36.14-61.16.37l.02-53.08h21.75Z"/>
  <path class="cls-1" d="M35.66,222.54c-17.95-1.32-32.99-15.77-35.24-33.57-3.9-30.79,20.49-52.49,50.63-46.88,9.93,1.85,18.74,8.34,23.6,17.06l-10.11,6.76c-6.93-18.04-30.52-21.24-38.32-1.75-5.74,14.33-3.97,42.7,13.94,47.69,12.71,3.55,22.23-4.47,27.02-15.55.86-.6,8.12,5.23,9.73,5.62-5.67,12.31-17.18,20.02-30.75,20.62-2.87.13-6.12.1-9,0-.37-.01-.75.02-1.12,0h-.38Z"/>
  <path class="cls-3" d="M331.53,169.29c12.82.73,27.71-2.44,39.26,4.43,9.84,5.85,12.66,17.95,10.93,28.7-2.79,17.33-18.92,19.32-33.69,18.62v21.75h-15.75l-.78-1.29.03-72.21ZM348.03,213.92c10.32-.08,15.04-5.09,15.76-15.17.84-11.65-1.72-22.99-15.76-22.33v37.5Z"/>
  <path class="cls-1" d="M106.83,167.53c34.78-2.64,40.31,52.58,6.26,55.38-36.34,2.99-41.68-52.7-6.26-55.38ZM107.55,174.63c-3.12.65-4.52,4.82-5.2,7.55-1.72,6.94-1.98,24.37,1.85,30.5,2.93,4.69,8.18,4.8,10.88-.14,3.64-6.65,3.55-27.26,0-33.99-1.59-3.01-4.03-4.64-7.54-3.92Z"/>
  <path class="cls-2" d="M147.78,169.29c10.92,1.16,30.97-3.33,39.39,5.05,4.65,4.62,4.91,15.2.51,20.04-1.56,1.71-3.74,2.39-5.68,3.33-.36.17-.62-.1-.44.6l14.59,22.73h-19.31l-11.81-24.58c-.1-.71.06-.45.47-.64,3.19-1.44,5.39-.69,7.48-4.52,4.24-7.77-.53-16.57-9.83-14.89v44.63h-15.38v-51.75Z"/>
  <path class="cls-1" d="M238.91,168.92v7.88h-13.69c-1.41,0-4.31,1.52-4.31,3.19v11.06h16.12v8.25h-16.12v11.06c0,.72,1.75,2.81,2.44,2.81h16.31v7.88h-27.56c-.51,0-3.08-.87-3.7-1.17-3.04-1.47-3.79-4.62-4.31-7.69.53-10.84-.87-22.61-.06-33.34.4-5.37,2.19-8.56,7.74-9.51s14.58-.56,20.6-.43c2.08.04,4.48.71,6.55.02Z"/>
</svg>
